<mxfile host="app.diagrams.net" modified="2023-12-21T07:43:42.188Z" agent="Mozilla/5.0 (Windows NT 10.0; Win64; x64) AppleWebKit/537.36 (KHTML, like Gecko) Chrome/120.0.0.0 Safari/537.36 Edg/120.0.0.0" etag="w2tTADP3ZF1KvYp2_8mS" version="22.1.11" type="device">
  <diagram name="第 1 页" id="JLA6dC_tkWBYGCqmmo8S">
    <mxGraphModel dx="-4634" dy="-9880" grid="1" gridSize="10" guides="1" tooltips="1" connect="1" arrows="1" fold="1" page="1" pageScale="1" pageWidth="827" pageHeight="1169" math="0" shadow="0">
      <root>
        <mxCell id="0" />
        <mxCell id="1" parent="0" />
        <mxCell id="zA2qEYMAN9XNE2zyitzX-19" value="Pharmacist" style="swimlane;fontStyle=1;align=center;verticalAlign=top;childLayout=stackLayout;horizontal=1;startSize=26;horizontalStack=0;resizeParent=1;resizeParentMax=0;resizeLast=0;collapsible=0;marginBottom=0;" parent="1" vertex="1">
          <mxGeometry x="6880" y="10930" width="250" height="300" as="geometry" />
        </mxCell>
        <mxCell id="zA2qEYMAN9XNE2zyitzX-20" value="-PharmacistID: int" style="text;strokeColor=none;fillColor=none;align=left;verticalAlign=top;spacingLeft=4;spacingRight=4;overflow=hidden;rotatable=0;points=[[0,0.5],[1,0.5]];portConstraint=eastwest;" parent="zA2qEYMAN9XNE2zyitzX-19" vertex="1">
          <mxGeometry y="26" width="250" height="26" as="geometry" />
        </mxCell>
        <mxCell id="zA2qEYMAN9XNE2zyitzX-21" value="-name: String" style="text;strokeColor=none;fillColor=none;align=left;verticalAlign=top;spacingLeft=4;spacingRight=4;overflow=hidden;rotatable=0;points=[[0,0.5],[1,0.5]];portConstraint=eastwest;" parent="zA2qEYMAN9XNE2zyitzX-19" vertex="1">
          <mxGeometry y="52" width="250" height="26" as="geometry" />
        </mxCell>
        <mxCell id="zA2qEYMAN9XNE2zyitzX-22" value="-Username: String" style="text;strokeColor=none;fillColor=none;align=left;verticalAlign=top;spacingLeft=4;spacingRight=4;overflow=hidden;rotatable=0;points=[[0,0.5],[1,0.5]];portConstraint=eastwest;" parent="zA2qEYMAN9XNE2zyitzX-19" vertex="1">
          <mxGeometry y="78" width="250" height="26" as="geometry" />
        </mxCell>
        <mxCell id="zA2qEYMAN9XNE2zyitzX-23" value="-Password: String" style="text;strokeColor=none;fillColor=none;align=left;verticalAlign=top;spacingLeft=4;spacingRight=4;overflow=hidden;rotatable=0;points=[[0,0.5],[1,0.5]];portConstraint=eastwest;" parent="zA2qEYMAN9XNE2zyitzX-19" vertex="1">
          <mxGeometry y="104" width="250" height="26" as="geometry" />
        </mxCell>
        <mxCell id="zA2qEYMAN9XNE2zyitzX-24" value="-License: String" style="text;strokeColor=none;fillColor=none;align=left;verticalAlign=top;spacingLeft=4;spacingRight=4;overflow=hidden;rotatable=0;points=[[0,0.5],[1,0.5]];portConstraint=eastwest;" parent="zA2qEYMAN9XNE2zyitzX-19" vertex="1">
          <mxGeometry y="130" width="250" height="26" as="geometry" />
        </mxCell>
        <mxCell id="zA2qEYMAN9XNE2zyitzX-29" value="&amp;nbsp;-Phone number: String" style="text;html=1;align=left;verticalAlign=middle;resizable=0;points=[];autosize=1;strokeColor=none;fillColor=none;" parent="zA2qEYMAN9XNE2zyitzX-19" vertex="1">
          <mxGeometry y="156" width="250" height="30" as="geometry" />
        </mxCell>
        <mxCell id="zA2qEYMAN9XNE2zyitzX-25" style="line;strokeWidth=1;fillColor=none;align=left;verticalAlign=middle;spacingTop=-1;spacingLeft=3;spacingRight=3;rotatable=0;labelPosition=right;points=[];portConstraint=eastwest;strokeColor=inherit;" parent="zA2qEYMAN9XNE2zyitzX-19" vertex="1">
          <mxGeometry y="186" width="250" height="4" as="geometry" />
        </mxCell>
        <mxCell id="zA2qEYMAN9XNE2zyitzX-26" value="+ Login（）&#xa;+ Register（）&#xa;+ Authenticate()&#xa;+ refusePrescription（）&#xa;+ dispenseMedication()" style="text;strokeColor=none;fillColor=none;align=left;verticalAlign=top;spacingLeft=4;spacingRight=4;overflow=hidden;rotatable=0;points=[[0,0.5],[1,0.5]];portConstraint=eastwest;" parent="zA2qEYMAN9XNE2zyitzX-19" vertex="1">
          <mxGeometry y="190" width="250" height="80" as="geometry" />
        </mxCell>
        <mxCell id="WNjvvNnH-HB7h0UXMUIY-1" value="&amp;nbsp;+ requestPrescription（）&lt;br&gt;&amp;nbsp;+&amp;nbsp;recordMedicationEffect()" style="text;html=1;strokeColor=none;fillColor=none;align=left;verticalAlign=middle;whiteSpace=wrap;rounded=0;" parent="zA2qEYMAN9XNE2zyitzX-19" vertex="1">
          <mxGeometry y="270" width="250" height="30" as="geometry" />
        </mxCell>
        <mxCell id="zA2qEYMAN9XNE2zyitzX-30" value="Prescription" style="swimlane;fontStyle=2;align=center;verticalAlign=top;childLayout=stackLayout;horizontal=1;startSize=26;horizontalStack=0;resizeParent=1;resizeLast=0;collapsible=1;marginBottom=0;rounded=0;shadow=0;strokeWidth=1;" parent="1" vertex="1">
          <mxGeometry x="7270" y="10660" width="240" height="270" as="geometry">
            <mxRectangle x="230" y="140" width="160" height="26" as="alternateBounds" />
          </mxGeometry>
        </mxCell>
        <mxCell id="zA2qEYMAN9XNE2zyitzX-31" value="- PrescriptionID: int" style="text;align=left;verticalAlign=top;spacingLeft=4;spacingRight=4;overflow=hidden;rotatable=0;points=[[0,0.5],[1,0.5]];portConstraint=eastwest;" parent="zA2qEYMAN9XNE2zyitzX-30" vertex="1">
          <mxGeometry y="26" width="240" height="26" as="geometry" />
        </mxCell>
        <mxCell id="zA2qEYMAN9XNE2zyitzX-32" value="- DoctorID: int" style="text;align=left;verticalAlign=top;spacingLeft=4;spacingRight=4;overflow=hidden;rotatable=0;points=[[0,0.5],[1,0.5]];portConstraint=eastwest;rounded=0;shadow=0;html=0;" parent="zA2qEYMAN9XNE2zyitzX-30" vertex="1">
          <mxGeometry y="52" width="240" height="26" as="geometry" />
        </mxCell>
        <mxCell id="zA2qEYMAN9XNE2zyitzX-33" value="- PatientID: Iint" style="text;align=left;verticalAlign=top;spacingLeft=4;spacingRight=4;overflow=hidden;rotatable=0;points=[[0,0.5],[1,0.5]];portConstraint=eastwest;rounded=0;shadow=0;html=0;" parent="zA2qEYMAN9XNE2zyitzX-30" vertex="1">
          <mxGeometry y="78" width="240" height="26" as="geometry" />
        </mxCell>
        <mxCell id="zA2qEYMAN9XNE2zyitzX-34" value="- MedicationID: int" style="text;align=left;verticalAlign=top;spacingLeft=4;spacingRight=4;overflow=hidden;rotatable=0;points=[[0,0.5],[1,0.5]];portConstraint=eastwest;rounded=0;shadow=0;html=0;" parent="zA2qEYMAN9XNE2zyitzX-30" vertex="1">
          <mxGeometry y="104" width="240" height="26" as="geometry" />
        </mxCell>
        <mxCell id="zA2qEYMAN9XNE2zyitzX-35" value="- PharmacistID: int" style="text;align=left;verticalAlign=top;spacingLeft=4;spacingRight=4;overflow=hidden;rotatable=0;points=[[0,0.5],[1,0.5]];portConstraint=eastwest;rounded=0;shadow=0;html=0;" parent="zA2qEYMAN9XNE2zyitzX-30" vertex="1">
          <mxGeometry y="130" width="240" height="26" as="geometry" />
        </mxCell>
        <mxCell id="zA2qEYMAN9XNE2zyitzX-36" value="- Dosage: String" style="text;align=left;verticalAlign=top;spacingLeft=4;spacingRight=4;overflow=hidden;rotatable=0;points=[[0,0.5],[1,0.5]];portConstraint=eastwest;rounded=0;shadow=0;html=0;" parent="zA2qEYMAN9XNE2zyitzX-30" vertex="1">
          <mxGeometry y="156" width="240" height="26" as="geometry" />
        </mxCell>
        <mxCell id="zA2qEYMAN9XNE2zyitzX-40" value="" style="line;html=1;strokeWidth=1;align=left;verticalAlign=middle;spacingTop=-1;spacingLeft=3;spacingRight=3;rotatable=0;labelPosition=right;points=[];portConstraint=eastwest;" parent="zA2qEYMAN9XNE2zyitzX-30" vertex="1">
          <mxGeometry y="182" width="240" height="8" as="geometry" />
        </mxCell>
        <mxCell id="zA2qEYMAN9XNE2zyitzX-41" value="+ checkPrescription（）" style="text;align=left;verticalAlign=top;spacingLeft=4;spacingRight=4;overflow=hidden;rotatable=0;points=[[0,0.5],[1,0.5]];portConstraint=eastwest;rounded=0;shadow=0;html=0;" parent="zA2qEYMAN9XNE2zyitzX-30" vertex="1">
          <mxGeometry y="190" width="240" height="26" as="geometry" />
        </mxCell>
        <mxCell id="zA2qEYMAN9XNE2zyitzX-42" value="+ UpdatePrescription()" style="text;align=left;verticalAlign=top;spacingLeft=4;spacingRight=4;overflow=hidden;rotatable=0;points=[[0,0.5],[1,0.5]];portConstraint=eastwest;rounded=0;shadow=0;html=0;" parent="zA2qEYMAN9XNE2zyitzX-30" vertex="1">
          <mxGeometry y="216" width="240" height="24" as="geometry" />
        </mxCell>
        <mxCell id="WNjvvNnH-HB7h0UXMUIY-2" value="&amp;nbsp;+ selectMedication()" style="text;html=1;strokeColor=none;fillColor=none;align=left;verticalAlign=middle;whiteSpace=wrap;rounded=0;" parent="zA2qEYMAN9XNE2zyitzX-30" vertex="1">
          <mxGeometry y="240" width="240" height="30" as="geometry" />
        </mxCell>
        <mxCell id="zA2qEYMAN9XNE2zyitzX-43" value="Patient" style="swimlane;fontStyle=2;align=center;verticalAlign=top;childLayout=stackLayout;horizontal=1;startSize=26;horizontalStack=0;resizeParent=1;resizeLast=0;collapsible=1;marginBottom=0;rounded=0;shadow=0;strokeWidth=1;" parent="1" vertex="1">
          <mxGeometry x="6480" y="10870" width="240" height="200" as="geometry">
            <mxRectangle x="230" y="140" width="160" height="26" as="alternateBounds" />
          </mxGeometry>
        </mxCell>
        <mxCell id="zA2qEYMAN9XNE2zyitzX-44" value="- Name：String" style="text;align=left;verticalAlign=top;spacingLeft=4;spacingRight=4;overflow=hidden;rotatable=0;points=[[0,0.5],[1,0.5]];portConstraint=eastwest;" parent="zA2qEYMAN9XNE2zyitzX-43" vertex="1">
          <mxGeometry y="26" width="240" height="26" as="geometry" />
        </mxCell>
        <mxCell id="zA2qEYMAN9XNE2zyitzX-45" value="- Phone number: String" style="text;align=left;verticalAlign=top;spacingLeft=4;spacingRight=4;overflow=hidden;rotatable=0;points=[[0,0.5],[1,0.5]];portConstraint=eastwest;rounded=0;shadow=0;html=0;" parent="zA2qEYMAN9XNE2zyitzX-43" vertex="1">
          <mxGeometry y="52" width="240" height="26" as="geometry" />
        </mxCell>
        <mxCell id="zA2qEYMAN9XNE2zyitzX-46" value="- PatientID: Iint" style="text;align=left;verticalAlign=top;spacingLeft=4;spacingRight=4;overflow=hidden;rotatable=0;points=[[0,0.5],[1,0.5]];portConstraint=eastwest;rounded=0;shadow=0;html=0;" parent="zA2qEYMAN9XNE2zyitzX-43" vertex="1">
          <mxGeometry y="78" width="240" height="26" as="geometry" />
        </mxCell>
        <mxCell id="zA2qEYMAN9XNE2zyitzX-47" value="- Medication List: List&lt;Medication&gt;" style="text;align=left;verticalAlign=top;spacingLeft=4;spacingRight=4;overflow=hidden;rotatable=0;points=[[0,0.5],[1,0.5]];portConstraint=eastwest;rounded=0;shadow=0;html=0;" parent="zA2qEYMAN9XNE2zyitzX-43" vertex="1">
          <mxGeometry y="104" width="240" height="26" as="geometry" />
        </mxCell>
        <mxCell id="zA2qEYMAN9XNE2zyitzX-50" value="" style="line;html=1;strokeWidth=1;align=left;verticalAlign=middle;spacingTop=-1;spacingLeft=3;spacingRight=3;rotatable=0;labelPosition=right;points=[];portConstraint=eastwest;" parent="zA2qEYMAN9XNE2zyitzX-43" vertex="1">
          <mxGeometry y="130" width="240" height="8" as="geometry" />
        </mxCell>
        <mxCell id="zA2qEYMAN9XNE2zyitzX-51" value="+ requestPrescription（）" style="text;align=left;verticalAlign=top;spacingLeft=4;spacingRight=4;overflow=hidden;rotatable=0;points=[[0,0.5],[1,0.5]];portConstraint=eastwest;rounded=0;shadow=0;html=0;" parent="zA2qEYMAN9XNE2zyitzX-43" vertex="1">
          <mxGeometry y="138" width="240" height="26" as="geometry" />
        </mxCell>
        <mxCell id="zA2qEYMAN9XNE2zyitzX-52" value="+ viewMedicalRecords()" style="text;align=left;verticalAlign=top;spacingLeft=4;spacingRight=4;overflow=hidden;rotatable=0;points=[[0,0.5],[1,0.5]];portConstraint=eastwest;rounded=0;shadow=0;html=0;" parent="zA2qEYMAN9XNE2zyitzX-43" vertex="1">
          <mxGeometry y="164" width="240" height="26" as="geometry" />
        </mxCell>
        <mxCell id="zA2qEYMAN9XNE2zyitzX-53" value="Doctor" style="swimlane;fontStyle=1;align=center;verticalAlign=top;childLayout=stackLayout;horizontal=1;startSize=26;horizontalStack=0;resizeParent=1;resizeParentMax=0;resizeLast=0;collapsible=0;marginBottom=0;" parent="1" vertex="1">
          <mxGeometry x="6800" y="10560" width="250" height="250" as="geometry" />
        </mxCell>
        <mxCell id="zA2qEYMAN9XNE2zyitzX-54" value="-DoctorID: int" style="text;strokeColor=none;fillColor=none;align=left;verticalAlign=top;spacingLeft=4;spacingRight=4;overflow=hidden;rotatable=0;points=[[0,0.5],[1,0.5]];portConstraint=eastwest;" parent="zA2qEYMAN9XNE2zyitzX-53" vertex="1">
          <mxGeometry y="26" width="250" height="26" as="geometry" />
        </mxCell>
        <mxCell id="zA2qEYMAN9XNE2zyitzX-55" value="-name: String" style="text;strokeColor=none;fillColor=none;align=left;verticalAlign=top;spacingLeft=4;spacingRight=4;overflow=hidden;rotatable=0;points=[[0,0.5],[1,0.5]];portConstraint=eastwest;" parent="zA2qEYMAN9XNE2zyitzX-53" vertex="1">
          <mxGeometry y="52" width="250" height="26" as="geometry" />
        </mxCell>
        <mxCell id="zA2qEYMAN9XNE2zyitzX-56" value="-Username: String" style="text;strokeColor=none;fillColor=none;align=left;verticalAlign=top;spacingLeft=4;spacingRight=4;overflow=hidden;rotatable=0;points=[[0,0.5],[1,0.5]];portConstraint=eastwest;" parent="zA2qEYMAN9XNE2zyitzX-53" vertex="1">
          <mxGeometry y="78" width="250" height="26" as="geometry" />
        </mxCell>
        <mxCell id="zA2qEYMAN9XNE2zyitzX-57" value="-Password: String" style="text;strokeColor=none;fillColor=none;align=left;verticalAlign=top;spacingLeft=4;spacingRight=4;overflow=hidden;rotatable=0;points=[[0,0.5],[1,0.5]];portConstraint=eastwest;" parent="zA2qEYMAN9XNE2zyitzX-53" vertex="1">
          <mxGeometry y="104" width="250" height="26" as="geometry" />
        </mxCell>
        <mxCell id="zA2qEYMAN9XNE2zyitzX-58" value="-License: String" style="text;strokeColor=none;fillColor=none;align=left;verticalAlign=top;spacingLeft=4;spacingRight=4;overflow=hidden;rotatable=0;points=[[0,0.5],[1,0.5]];portConstraint=eastwest;" parent="zA2qEYMAN9XNE2zyitzX-53" vertex="1">
          <mxGeometry y="130" width="250" height="26" as="geometry" />
        </mxCell>
        <mxCell id="zA2qEYMAN9XNE2zyitzX-59" value="&amp;nbsp;-Phone number: String" style="text;html=1;align=left;verticalAlign=middle;resizable=0;points=[];autosize=1;strokeColor=none;fillColor=none;" parent="zA2qEYMAN9XNE2zyitzX-53" vertex="1">
          <mxGeometry y="156" width="250" height="30" as="geometry" />
        </mxCell>
        <mxCell id="zA2qEYMAN9XNE2zyitzX-60" style="line;strokeWidth=1;fillColor=none;align=left;verticalAlign=middle;spacingTop=-1;spacingLeft=3;spacingRight=3;rotatable=0;labelPosition=right;points=[];portConstraint=eastwest;strokeColor=inherit;" parent="zA2qEYMAN9XNE2zyitzX-53" vertex="1">
          <mxGeometry y="186" width="250" height="4" as="geometry" />
        </mxCell>
        <mxCell id="zA2qEYMAN9XNE2zyitzX-61" value="+ Login（）&#xa;+ Register（）&#xa;+ Authenticate()" style="text;strokeColor=none;fillColor=none;align=left;verticalAlign=top;spacingLeft=4;spacingRight=4;overflow=hidden;rotatable=0;points=[[0,0.5],[1,0.5]];portConstraint=eastwest;" parent="zA2qEYMAN9XNE2zyitzX-53" vertex="1">
          <mxGeometry y="190" width="250" height="60" as="geometry" />
        </mxCell>
        <mxCell id="zA2qEYMAN9XNE2zyitzX-62" value="Medication" style="swimlane;fontStyle=2;align=center;verticalAlign=top;childLayout=stackLayout;horizontal=1;startSize=26;horizontalStack=0;resizeParent=1;resizeLast=0;collapsible=1;marginBottom=0;rounded=0;shadow=0;strokeWidth=1;" parent="1" vertex="1">
          <mxGeometry x="7310" y="11100" width="240" height="256" as="geometry">
            <mxRectangle x="230" y="140" width="160" height="26" as="alternateBounds" />
          </mxGeometry>
        </mxCell>
        <mxCell id="zA2qEYMAN9XNE2zyitzX-63" value="- MedicationID: int" style="text;align=left;verticalAlign=top;spacingLeft=4;spacingRight=4;overflow=hidden;rotatable=0;points=[[0,0.5],[1,0.5]];portConstraint=eastwest;" parent="zA2qEYMAN9XNE2zyitzX-62" vertex="1">
          <mxGeometry y="26" width="240" height="26" as="geometry" />
        </mxCell>
        <mxCell id="zA2qEYMAN9XNE2zyitzX-64" value="- Price: float" style="text;align=left;verticalAlign=top;spacingLeft=4;spacingRight=4;overflow=hidden;rotatable=0;points=[[0,0.5],[1,0.5]];portConstraint=eastwest;rounded=0;shadow=0;html=0;" parent="zA2qEYMAN9XNE2zyitzX-62" vertex="1">
          <mxGeometry y="52" width="240" height="26" as="geometry" />
        </mxCell>
        <mxCell id="zA2qEYMAN9XNE2zyitzX-65" value="- Manufacturer: String" style="text;align=left;verticalAlign=top;spacingLeft=4;spacingRight=4;overflow=hidden;rotatable=0;points=[[0,0.5],[1,0.5]];portConstraint=eastwest;rounded=0;shadow=0;html=0;" parent="zA2qEYMAN9XNE2zyitzX-62" vertex="1">
          <mxGeometry y="78" width="240" height="26" as="geometry" />
        </mxCell>
        <mxCell id="zA2qEYMAN9XNE2zyitzX-66" value="- Name: String" style="text;align=left;verticalAlign=top;spacingLeft=4;spacingRight=4;overflow=hidden;rotatable=0;points=[[0,0.5],[1,0.5]];portConstraint=eastwest;rounded=0;shadow=0;html=0;" parent="zA2qEYMAN9XNE2zyitzX-62" vertex="1">
          <mxGeometry y="104" width="240" height="26" as="geometry" />
        </mxCell>
        <mxCell id="zA2qEYMAN9XNE2zyitzX-67" value="- Description: String" style="text;align=left;verticalAlign=top;spacingLeft=4;spacingRight=4;overflow=hidden;rotatable=0;points=[[0,0.5],[1,0.5]];portConstraint=eastwest;rounded=0;shadow=0;html=0;" parent="zA2qEYMAN9XNE2zyitzX-62" vertex="1">
          <mxGeometry y="130" width="240" height="26" as="geometry" />
        </mxCell>
        <mxCell id="zA2qEYMAN9XNE2zyitzX-69" value="" style="line;html=1;strokeWidth=1;align=left;verticalAlign=middle;spacingTop=-1;spacingLeft=3;spacingRight=3;rotatable=0;labelPosition=right;points=[];portConstraint=eastwest;" parent="zA2qEYMAN9XNE2zyitzX-62" vertex="1">
          <mxGeometry y="156" width="240" height="8" as="geometry" />
        </mxCell>
        <mxCell id="zA2qEYMAN9XNE2zyitzX-70" value="+ getMedicationDetails()" style="text;align=left;verticalAlign=top;spacingLeft=4;spacingRight=4;overflow=hidden;rotatable=0;points=[[0,0.5],[1,0.5]];portConstraint=eastwest;rounded=0;shadow=0;html=0;" parent="zA2qEYMAN9XNE2zyitzX-62" vertex="1">
          <mxGeometry y="164" width="240" height="26" as="geometry" />
        </mxCell>
        <mxCell id="zA2qEYMAN9XNE2zyitzX-71" value="+ getQuantityInStock()" style="text;align=left;verticalAlign=top;spacingLeft=4;spacingRight=4;overflow=hidden;rotatable=0;points=[[0,0.5],[1,0.5]];portConstraint=eastwest;rounded=0;shadow=0;html=0;" parent="zA2qEYMAN9XNE2zyitzX-62" vertex="1">
          <mxGeometry y="190" width="240" height="26" as="geometry" />
        </mxCell>
        <mxCell id="WNjvvNnH-HB7h0UXMUIY-3" value="&amp;nbsp;+ checkMedicationDosage()" style="text;html=1;strokeColor=none;fillColor=none;align=left;verticalAlign=middle;whiteSpace=wrap;rounded=0;" parent="zA2qEYMAN9XNE2zyitzX-62" vertex="1">
          <mxGeometry y="216" width="240" height="20" as="geometry" />
        </mxCell>
        <mxCell id="3t4P4fP04dYdfZ8SO8EZ-2" value="&amp;nbsp;+ updateMedicationInformation()" style="text;html=1;strokeColor=none;fillColor=none;align=left;verticalAlign=middle;whiteSpace=wrap;rounded=0;" vertex="1" parent="zA2qEYMAN9XNE2zyitzX-62">
          <mxGeometry y="236" width="240" height="20" as="geometry" />
        </mxCell>
        <mxCell id="zA2qEYMAN9XNE2zyitzX-73" value="MedicationPurchase" style="swimlane;fontStyle=2;align=center;verticalAlign=top;childLayout=stackLayout;horizontal=1;startSize=26;horizontalStack=0;resizeParent=1;resizeLast=0;collapsible=1;marginBottom=0;rounded=0;shadow=0;strokeWidth=1;" parent="1" vertex="1">
          <mxGeometry x="6520" y="11240" width="220" height="270" as="geometry">
            <mxRectangle x="7230" y="10964" width="160" height="26" as="alternateBounds" />
          </mxGeometry>
        </mxCell>
        <mxCell id="zA2qEYMAN9XNE2zyitzX-74" value="- PurchaseID: int" style="text;align=left;verticalAlign=top;spacingLeft=4;spacingRight=4;overflow=hidden;rotatable=0;points=[[0,0.5],[1,0.5]];portConstraint=eastwest;" parent="zA2qEYMAN9XNE2zyitzX-73" vertex="1">
          <mxGeometry y="26" width="220" height="26" as="geometry" />
        </mxCell>
        <mxCell id="zA2qEYMAN9XNE2zyitzX-75" value="- MedicationID: int" style="text;align=left;verticalAlign=top;spacingLeft=4;spacingRight=4;overflow=hidden;rotatable=0;points=[[0,0.5],[1,0.5]];portConstraint=eastwest;rounded=0;shadow=0;html=0;" parent="zA2qEYMAN9XNE2zyitzX-73" vertex="1">
          <mxGeometry y="52" width="220" height="26" as="geometry" />
        </mxCell>
        <mxCell id="zA2qEYMAN9XNE2zyitzX-76" value="- Quantity: int" style="text;align=left;verticalAlign=top;spacingLeft=4;spacingRight=4;overflow=hidden;rotatable=0;points=[[0,0.5],[1,0.5]];portConstraint=eastwest;rounded=0;shadow=0;html=0;" parent="zA2qEYMAN9XNE2zyitzX-73" vertex="1">
          <mxGeometry y="78" width="220" height="26" as="geometry" />
        </mxCell>
        <mxCell id="zA2qEYMAN9XNE2zyitzX-77" value="- totalCost: double" style="text;align=left;verticalAlign=top;spacingLeft=4;spacingRight=4;overflow=hidden;rotatable=0;points=[[0,0.5],[1,0.5]];portConstraint=eastwest;rounded=0;shadow=0;html=0;" parent="zA2qEYMAN9XNE2zyitzX-73" vertex="1">
          <mxGeometry y="104" width="220" height="26" as="geometry" />
        </mxCell>
        <mxCell id="zA2qEYMAN9XNE2zyitzX-78" value="- purchaseDate: Date" style="text;align=left;verticalAlign=top;spacingLeft=4;spacingRight=4;overflow=hidden;rotatable=0;points=[[0,0.5],[1,0.5]];portConstraint=eastwest;rounded=0;shadow=0;html=0;" parent="zA2qEYMAN9XNE2zyitzX-73" vertex="1">
          <mxGeometry y="130" width="220" height="26" as="geometry" />
        </mxCell>
        <mxCell id="zA2qEYMAN9XNE2zyitzX-79" value="- ResponsiblePerson: String" style="text;align=left;verticalAlign=top;spacingLeft=4;spacingRight=4;overflow=hidden;rotatable=0;points=[[0,0.5],[1,0.5]];portConstraint=eastwest;rounded=0;shadow=0;html=0;" parent="zA2qEYMAN9XNE2zyitzX-73" vertex="1">
          <mxGeometry y="156" width="220" height="26" as="geometry" />
        </mxCell>
        <mxCell id="zA2qEYMAN9XNE2zyitzX-80" value="" style="line;html=1;strokeWidth=1;align=left;verticalAlign=middle;spacingTop=-1;spacingLeft=3;spacingRight=3;rotatable=0;labelPosition=right;points=[];portConstraint=eastwest;" parent="zA2qEYMAN9XNE2zyitzX-73" vertex="1">
          <mxGeometry y="182" width="220" height="8" as="geometry" />
        </mxCell>
        <mxCell id="zA2qEYMAN9XNE2zyitzX-81" value="+ generatePurchaseRecord()" style="text;align=left;verticalAlign=top;spacingLeft=4;spacingRight=4;overflow=hidden;rotatable=0;points=[[0,0.5],[1,0.5]];portConstraint=eastwest;rounded=0;shadow=0;html=0;" parent="zA2qEYMAN9XNE2zyitzX-73" vertex="1">
          <mxGeometry y="190" width="220" height="26" as="geometry" />
        </mxCell>
        <mxCell id="zA2qEYMAN9XNE2zyitzX-82" value="+ calculateTotalCost()&#xa;&#xa;+ PurchaseDetails()" style="text;align=left;verticalAlign=top;spacingLeft=4;spacingRight=4;overflow=hidden;rotatable=0;points=[[0,0.5],[1,0.5]];portConstraint=eastwest;rounded=0;shadow=0;html=0;" parent="zA2qEYMAN9XNE2zyitzX-73" vertex="1">
          <mxGeometry y="216" width="220" height="54" as="geometry" />
        </mxCell>
        <mxCell id="zA2qEYMAN9XNE2zyitzX-83" value="MedicationWarehouse&#xa;" style="swimlane;fontStyle=2;align=center;verticalAlign=top;childLayout=stackLayout;horizontal=1;startSize=26;horizontalStack=0;resizeParent=1;resizeLast=0;collapsible=1;marginBottom=0;rounded=0;shadow=0;strokeWidth=1;" parent="1" vertex="1">
          <mxGeometry x="6940" y="11330" width="220" height="260" as="geometry">
            <mxRectangle x="7230" y="10964" width="160" height="26" as="alternateBounds" />
          </mxGeometry>
        </mxCell>
        <mxCell id="zA2qEYMAN9XNE2zyitzX-84" value="- Medication List: List&lt;Medication&gt;" style="text;align=left;verticalAlign=top;spacingLeft=4;spacingRight=4;overflow=hidden;rotatable=0;points=[[0,0.5],[1,0.5]];portConstraint=eastwest;" parent="zA2qEYMAN9XNE2zyitzX-83" vertex="1">
          <mxGeometry y="26" width="220" height="26" as="geometry" />
        </mxCell>
        <mxCell id="zA2qEYMAN9XNE2zyitzX-85" value="- MedicationID: int" style="text;align=left;verticalAlign=top;spacingLeft=4;spacingRight=4;overflow=hidden;rotatable=0;points=[[0,0.5],[1,0.5]];portConstraint=eastwest;rounded=0;shadow=0;html=0;" parent="zA2qEYMAN9XNE2zyitzX-83" vertex="1">
          <mxGeometry y="52" width="220" height="26" as="geometry" />
        </mxCell>
        <mxCell id="zA2qEYMAN9XNE2zyitzX-86" value="- Quantity: int" style="text;align=left;verticalAlign=top;spacingLeft=4;spacingRight=4;overflow=hidden;rotatable=0;points=[[0,0.5],[1,0.5]];portConstraint=eastwest;rounded=0;shadow=0;html=0;" parent="zA2qEYMAN9XNE2zyitzX-83" vertex="1">
          <mxGeometry y="78" width="220" height="26" as="geometry" />
        </mxCell>
        <mxCell id="zA2qEYMAN9XNE2zyitzX-88" value="- purchaseDate: Date" style="text;align=left;verticalAlign=top;spacingLeft=4;spacingRight=4;overflow=hidden;rotatable=0;points=[[0,0.5],[1,0.5]];portConstraint=eastwest;rounded=0;shadow=0;html=0;" parent="zA2qEYMAN9XNE2zyitzX-83" vertex="1">
          <mxGeometry y="104" width="220" height="26" as="geometry" />
        </mxCell>
        <mxCell id="zA2qEYMAN9XNE2zyitzX-89" value="- ResponsiblePerson: String" style="text;align=left;verticalAlign=top;spacingLeft=4;spacingRight=4;overflow=hidden;rotatable=0;points=[[0,0.5],[1,0.5]];portConstraint=eastwest;rounded=0;shadow=0;html=0;" parent="zA2qEYMAN9XNE2zyitzX-83" vertex="1">
          <mxGeometry y="130" width="220" height="26" as="geometry" />
        </mxCell>
        <mxCell id="zA2qEYMAN9XNE2zyitzX-90" value="" style="line;html=1;strokeWidth=1;align=left;verticalAlign=middle;spacingTop=-1;spacingLeft=3;spacingRight=3;rotatable=0;labelPosition=right;points=[];portConstraint=eastwest;" parent="zA2qEYMAN9XNE2zyitzX-83" vertex="1">
          <mxGeometry y="156" width="220" height="8" as="geometry" />
        </mxCell>
        <mxCell id="zA2qEYMAN9XNE2zyitzX-91" value="+ addMedication()" style="text;align=left;verticalAlign=top;spacingLeft=4;spacingRight=4;overflow=hidden;rotatable=0;points=[[0,0.5],[1,0.5]];portConstraint=eastwest;rounded=0;shadow=0;html=0;" parent="zA2qEYMAN9XNE2zyitzX-83" vertex="1">
          <mxGeometry y="164" width="220" height="26" as="geometry" />
        </mxCell>
        <mxCell id="zA2qEYMAN9XNE2zyitzX-92" value="+ checkStock()" style="text;align=left;verticalAlign=top;spacingLeft=4;spacingRight=4;overflow=hidden;rotatable=0;points=[[0,0.5],[1,0.5]];portConstraint=eastwest;rounded=0;shadow=0;html=0;" parent="zA2qEYMAN9XNE2zyitzX-83" vertex="1">
          <mxGeometry y="190" width="220" height="20" as="geometry" />
        </mxCell>
        <mxCell id="WNjvvNnH-HB7h0UXMUIY-4" value="&amp;nbsp;+ getMedicationList()" style="text;html=1;strokeColor=none;fillColor=none;align=left;verticalAlign=middle;whiteSpace=wrap;rounded=0;" parent="zA2qEYMAN9XNE2zyitzX-83" vertex="1">
          <mxGeometry y="210" width="220" height="30" as="geometry" />
        </mxCell>
        <mxCell id="3t4P4fP04dYdfZ8SO8EZ-1" value="&amp;nbsp;+ updateInventory()" style="text;html=1;strokeColor=none;fillColor=none;align=left;verticalAlign=middle;whiteSpace=wrap;rounded=0;" vertex="1" parent="zA2qEYMAN9XNE2zyitzX-83">
          <mxGeometry y="240" width="220" height="20" as="geometry" />
        </mxCell>
        <mxCell id="A8UqG3x7fQHNZAJmew3f-2" value="" style="endArrow=none;html=1;rounded=0;entryX=0.472;entryY=-0.006;entryDx=0;entryDy=0;entryPerimeter=0;exitX=0.476;exitY=1.022;exitDx=0;exitDy=0;exitPerimeter=0;" parent="1" source="zA2qEYMAN9XNE2zyitzX-61" target="zA2qEYMAN9XNE2zyitzX-19" edge="1">
          <mxGeometry relative="1" as="geometry">
            <mxPoint x="6910" y="10830" as="sourcePoint" />
            <mxPoint x="7100" y="10830" as="targetPoint" />
          </mxGeometry>
        </mxCell>
        <mxCell id="A8UqG3x7fQHNZAJmew3f-3" value="1...*" style="edgeLabel;resizable=0;html=1;align=left;verticalAlign=bottom;" parent="A8UqG3x7fQHNZAJmew3f-2" connectable="0" vertex="1">
          <mxGeometry x="-1" relative="1" as="geometry">
            <mxPoint x="10" y="19" as="offset" />
          </mxGeometry>
        </mxCell>
        <mxCell id="A8UqG3x7fQHNZAJmew3f-4" value="1...1" style="edgeLabel;resizable=0;html=1;align=right;verticalAlign=bottom;" parent="A8UqG3x7fQHNZAJmew3f-2" connectable="0" vertex="1">
          <mxGeometry x="1" relative="1" as="geometry">
            <mxPoint x="22" as="offset" />
          </mxGeometry>
        </mxCell>
        <mxCell id="A8UqG3x7fQHNZAJmew3f-5" value="" style="endArrow=none;html=1;edgeStyle=orthogonalEdgeStyle;rounded=0;exitX=0.5;exitY=0;exitDx=0;exitDy=0;entryX=0;entryY=0.5;entryDx=0;entryDy=0;" parent="1" source="zA2qEYMAN9XNE2zyitzX-43" target="zA2qEYMAN9XNE2zyitzX-57" edge="1">
          <mxGeometry relative="1" as="geometry">
            <mxPoint x="6690" y="10830" as="sourcePoint" />
            <mxPoint x="6850" y="10830" as="targetPoint" />
          </mxGeometry>
        </mxCell>
        <mxCell id="A8UqG3x7fQHNZAJmew3f-6" value="1...*" style="edgeLabel;resizable=0;html=1;align=left;verticalAlign=bottom;" parent="A8UqG3x7fQHNZAJmew3f-5" connectable="0" vertex="1">
          <mxGeometry x="-1" relative="1" as="geometry" />
        </mxCell>
        <mxCell id="A8UqG3x7fQHNZAJmew3f-7" value="1...1" style="edgeLabel;resizable=0;html=1;align=right;verticalAlign=bottom;" parent="A8UqG3x7fQHNZAJmew3f-5" connectable="0" vertex="1">
          <mxGeometry x="1" relative="1" as="geometry" />
        </mxCell>
        <mxCell id="A8UqG3x7fQHNZAJmew3f-8" value="" style="endArrow=none;html=1;rounded=0;exitX=1;exitY=0.5;exitDx=0;exitDy=0;entryX=0;entryY=0.5;entryDx=0;entryDy=0;" parent="1" source="zA2qEYMAN9XNE2zyitzX-46" target="zA2qEYMAN9XNE2zyitzX-20" edge="1">
          <mxGeometry relative="1" as="geometry">
            <mxPoint x="6690" y="10830" as="sourcePoint" />
            <mxPoint x="6820" y="11050" as="targetPoint" />
          </mxGeometry>
        </mxCell>
        <mxCell id="A8UqG3x7fQHNZAJmew3f-9" value="1...*" style="edgeLabel;resizable=0;html=1;align=left;verticalAlign=bottom;" parent="A8UqG3x7fQHNZAJmew3f-8" connectable="0" vertex="1">
          <mxGeometry x="-1" relative="1" as="geometry" />
        </mxCell>
        <mxCell id="A8UqG3x7fQHNZAJmew3f-10" value="1...1" style="edgeLabel;resizable=0;html=1;align=right;verticalAlign=bottom;" parent="A8UqG3x7fQHNZAJmew3f-8" connectable="0" vertex="1">
          <mxGeometry x="1" relative="1" as="geometry">
            <mxPoint y="1" as="offset" />
          </mxGeometry>
        </mxCell>
        <mxCell id="A8UqG3x7fQHNZAJmew3f-11" value="" style="endArrow=diamondThin;endFill=1;endSize=24;html=1;rounded=0;entryX=1;entryY=0;entryDx=0;entryDy=0;exitX=0;exitY=0.5;exitDx=0;exitDy=0;" parent="1" source="zA2qEYMAN9XNE2zyitzX-34" target="zA2qEYMAN9XNE2zyitzX-19" edge="1">
          <mxGeometry width="160" relative="1" as="geometry">
            <mxPoint x="7120" y="10830" as="sourcePoint" />
            <mxPoint x="7280" y="10830" as="targetPoint" />
          </mxGeometry>
        </mxCell>
        <mxCell id="A8UqG3x7fQHNZAJmew3f-12" value="1...1" style="text;html=1;strokeColor=none;fillColor=none;align=center;verticalAlign=middle;whiteSpace=wrap;rounded=0;" parent="1" vertex="1">
          <mxGeometry x="7130" y="10890" width="20" height="20" as="geometry" />
        </mxCell>
        <mxCell id="A8UqG3x7fQHNZAJmew3f-13" value="1...*" style="text;html=1;strokeColor=none;fillColor=none;align=center;verticalAlign=middle;whiteSpace=wrap;rounded=0;" parent="1" vertex="1">
          <mxGeometry x="7250" y="10760" width="20" height="20" as="geometry" />
        </mxCell>
        <mxCell id="A8UqG3x7fQHNZAJmew3f-14" value="" style="endArrow=diamondThin;endFill=1;endSize=24;html=1;rounded=0;entryX=1;entryY=0.5;entryDx=0;entryDy=0;exitX=0;exitY=0.5;exitDx=0;exitDy=0;" parent="1" source="zA2qEYMAN9XNE2zyitzX-32" target="zA2qEYMAN9XNE2zyitzX-56" edge="1">
          <mxGeometry width="160" relative="1" as="geometry">
            <mxPoint x="7120" y="10830" as="sourcePoint" />
            <mxPoint x="7280" y="10830" as="targetPoint" />
          </mxGeometry>
        </mxCell>
        <mxCell id="A8UqG3x7fQHNZAJmew3f-16" value="1...1" style="text;html=1;strokeColor=none;fillColor=none;align=center;verticalAlign=middle;whiteSpace=wrap;rounded=0;" parent="1" vertex="1">
          <mxGeometry x="7080" y="10650" width="20" height="10" as="geometry" />
        </mxCell>
        <mxCell id="A8UqG3x7fQHNZAJmew3f-18" value="1...*" style="text;html=1;strokeColor=none;fillColor=none;align=center;verticalAlign=middle;whiteSpace=wrap;rounded=0;" parent="1" vertex="1">
          <mxGeometry x="7240" y="10700" width="30" height="10" as="geometry" />
        </mxCell>
        <mxCell id="A8UqG3x7fQHNZAJmew3f-19" value="" style="endArrow=diamondThin;endFill=1;endSize=24;html=1;rounded=0;exitX=-0.007;exitY=0.256;exitDx=0;exitDy=0;exitPerimeter=0;entryX=1.011;entryY=0.066;entryDx=0;entryDy=0;entryPerimeter=0;" parent="1" source="zA2qEYMAN9XNE2zyitzX-33" target="zA2qEYMAN9XNE2zyitzX-45" edge="1">
          <mxGeometry width="160" relative="1" as="geometry">
            <mxPoint x="6850" y="10900" as="sourcePoint" />
            <mxPoint x="6760" y="10830" as="targetPoint" />
          </mxGeometry>
        </mxCell>
        <mxCell id="A8UqG3x7fQHNZAJmew3f-20" value="1...1" style="text;html=1;strokeColor=none;fillColor=none;align=center;verticalAlign=middle;whiteSpace=wrap;rounded=0;" parent="1" vertex="1">
          <mxGeometry x="6730" y="10900" width="30" height="10" as="geometry" />
        </mxCell>
        <mxCell id="A8UqG3x7fQHNZAJmew3f-21" value="1...*" style="text;html=1;strokeColor=none;fillColor=none;align=center;verticalAlign=middle;whiteSpace=wrap;rounded=0;" parent="1" vertex="1">
          <mxGeometry x="7230" y="10740" width="30" height="10" as="geometry" />
        </mxCell>
        <mxCell id="A8UqG3x7fQHNZAJmew3f-22" value="" style="endArrow=none;html=1;rounded=0;entryX=0.5;entryY=1;entryDx=0;entryDy=0;exitX=0.466;exitY=-0.004;exitDx=0;exitDy=0;exitPerimeter=0;" parent="1" source="zA2qEYMAN9XNE2zyitzX-62" target="WNjvvNnH-HB7h0UXMUIY-2" edge="1">
          <mxGeometry width="50" height="50" relative="1" as="geometry">
            <mxPoint x="7300" y="11080" as="sourcePoint" />
            <mxPoint x="7350" y="11030" as="targetPoint" />
          </mxGeometry>
        </mxCell>
        <mxCell id="A8UqG3x7fQHNZAJmew3f-23" value="1...*" style="text;html=1;strokeColor=none;fillColor=none;align=center;verticalAlign=middle;whiteSpace=wrap;rounded=0;" parent="1" vertex="1">
          <mxGeometry x="7400" y="10930" width="20" height="20" as="geometry" />
        </mxCell>
        <mxCell id="A8UqG3x7fQHNZAJmew3f-24" value="1...*" style="text;html=1;strokeColor=none;fillColor=none;align=center;verticalAlign=middle;whiteSpace=wrap;rounded=0;" parent="1" vertex="1">
          <mxGeometry x="7423" y="11080" width="20" height="20" as="geometry" />
        </mxCell>
        <mxCell id="A8UqG3x7fQHNZAJmew3f-25" value="" style="endArrow=none;html=1;rounded=0;entryX=-0.016;entryY=0.177;entryDx=0;entryDy=0;entryPerimeter=0;exitX=0.805;exitY=-0.004;exitDx=0;exitDy=0;exitPerimeter=0;" parent="1" source="zA2qEYMAN9XNE2zyitzX-73" target="zA2qEYMAN9XNE2zyitzX-26" edge="1">
          <mxGeometry width="50" height="50" relative="1" as="geometry">
            <mxPoint x="6790" y="11190" as="sourcePoint" />
            <mxPoint x="6840" y="11140" as="targetPoint" />
          </mxGeometry>
        </mxCell>
        <mxCell id="A8UqG3x7fQHNZAJmew3f-26" value="1...1" style="text;html=1;strokeColor=none;fillColor=none;align=center;verticalAlign=middle;whiteSpace=wrap;rounded=0;" parent="1" vertex="1">
          <mxGeometry x="6850" y="11120" width="20" height="20" as="geometry" />
        </mxCell>
        <mxCell id="A8UqG3x7fQHNZAJmew3f-28" value="1...*" style="text;html=1;strokeColor=none;fillColor=none;align=center;verticalAlign=middle;whiteSpace=wrap;rounded=0;" parent="1" vertex="1">
          <mxGeometry x="6680" y="11225" width="20" height="15" as="geometry" />
        </mxCell>
        <mxCell id="A8UqG3x7fQHNZAJmew3f-29" value="" style="endArrow=none;html=1;rounded=0;entryX=-0.005;entryY=1.117;entryDx=0;entryDy=0;entryPerimeter=0;exitX=1.017;exitY=-0.147;exitDx=0;exitDy=0;exitPerimeter=0;" parent="1" source="zA2qEYMAN9XNE2zyitzX-76" target="zA2qEYMAN9XNE2zyitzX-86" edge="1">
          <mxGeometry width="50" height="50" relative="1" as="geometry">
            <mxPoint x="6770.5" y="11365" as="sourcePoint" />
            <mxPoint x="6949.5" y="11260" as="targetPoint" />
          </mxGeometry>
        </mxCell>
        <mxCell id="A8UqG3x7fQHNZAJmew3f-30" value="1...1" style="text;html=1;strokeColor=none;fillColor=none;align=center;verticalAlign=middle;whiteSpace=wrap;rounded=0;" parent="1" vertex="1">
          <mxGeometry x="6915" y="11400" width="20" height="20" as="geometry" />
        </mxCell>
        <mxCell id="A8UqG3x7fQHNZAJmew3f-31" value="1...*" style="text;html=1;strokeColor=none;fillColor=none;align=center;verticalAlign=middle;whiteSpace=wrap;rounded=0;" parent="1" vertex="1">
          <mxGeometry x="6750" y="11300" width="20" height="15" as="geometry" />
        </mxCell>
        <mxCell id="A8UqG3x7fQHNZAJmew3f-32" value="" style="endArrow=none;html=1;rounded=0;exitX=0.991;exitY=0.067;exitDx=0;exitDy=0;exitPerimeter=0;" parent="1" source="zA2qEYMAN9XNE2zyitzX-23" edge="1">
          <mxGeometry width="50" height="50" relative="1" as="geometry">
            <mxPoint x="7280" y="11240" as="sourcePoint" />
            <mxPoint x="7310" y="11170" as="targetPoint" />
          </mxGeometry>
        </mxCell>
        <mxCell id="A8UqG3x7fQHNZAJmew3f-33" value="1...1" style="text;html=1;strokeColor=none;fillColor=none;align=center;verticalAlign=middle;whiteSpace=wrap;rounded=0;" parent="1" vertex="1">
          <mxGeometry x="7140" y="11020" width="20" height="20" as="geometry" />
        </mxCell>
        <mxCell id="A8UqG3x7fQHNZAJmew3f-34" value="1...*" style="text;html=1;strokeColor=none;fillColor=none;align=center;verticalAlign=middle;whiteSpace=wrap;rounded=0;" parent="1" vertex="1">
          <mxGeometry x="7280" y="11130" width="30" height="22" as="geometry" />
        </mxCell>
        <mxCell id="A8UqG3x7fQHNZAJmew3f-35" value="" style="endArrow=none;html=1;rounded=0;exitX=1;exitY=0.5;exitDx=0;exitDy=0;entryX=-0.006;entryY=1.18;entryDx=0;entryDy=0;entryPerimeter=0;" parent="1" source="zA2qEYMAN9XNE2zyitzX-88" target="zA2qEYMAN9XNE2zyitzX-67" edge="1">
          <mxGeometry width="50" height="50" relative="1" as="geometry">
            <mxPoint x="7280" y="11230" as="sourcePoint" />
            <mxPoint x="7330" y="11180" as="targetPoint" />
          </mxGeometry>
        </mxCell>
        <mxCell id="A8UqG3x7fQHNZAJmew3f-36" value="0...*" style="text;html=1;strokeColor=none;fillColor=none;align=center;verticalAlign=middle;whiteSpace=wrap;rounded=0;" parent="1" vertex="1">
          <mxGeometry x="7160" y="11400" width="30" height="20" as="geometry" />
        </mxCell>
        <mxCell id="A8UqG3x7fQHNZAJmew3f-37" value="1...*" style="text;html=1;strokeColor=none;fillColor=none;align=center;verticalAlign=middle;whiteSpace=wrap;rounded=0;" parent="1" vertex="1">
          <mxGeometry x="7285" y="11250" width="20" height="20" as="geometry" />
        </mxCell>
      </root>
    </mxGraphModel>
  </diagram>
</mxfile>
